<svg xmlns="http://www.w3.org/2000/svg" version="1.1" xmlns:xlink="http://www.w3.org/1999/xlink" width="1000" height="1000"><style>
    #light-icon {
      display: inline;
    }
    #dark-icon {
      display: none;
    }

    @media (prefers-color-scheme: dark) {
      #light-icon {
        display: none;
      }
      #dark-icon {
        display: inline;
      }
    }
  </style><g id="light-icon"><svg xmlns="http://www.w3.org/2000/svg" version="1.1" xmlns:xlink="http://www.w3.org/1999/xlink" width="1000" height="1000"><g><g transform="matrix(32.25806451612903,0,0,32.25806451612903,0,161.29032258064518)"><svg xmlns="http://www.w3.org/2000/svg" version="1.1" xmlns:xlink="http://www.w3.org/1999/xlink" width="31" height="21"><svg width="31" height="21" viewBox="0 0 31 21" fill="none" xmlns="http://www.w3.org/2000/svg">
<g clip-path="url(#clip0_5088_864)">
<path d="M29.979 4.8995C29.366 3.31351 28.1401 2.04104 26.5984 1.30337C25.7533 0.897655 24.7967 0.639471 23.8123 0.547263C21.2212 0.289079 18.435 1.12818 16.9212 3.22131C16.4754 3.8391 16.1411 4.52144 15.9182 5.24067L13.3828 1.01753H9.99298V8.93822C9.99298 10.0632 9.6958 10.9023 9.10142 11.474C8.50704 12.0456 7.70834 12.3315 6.70533 12.3315C5.75804 12.3315 4.99649 12.0456 4.4114 11.474C3.82631 10.9023 3.53841 10.0632 3.53841 8.93822V1.01753H0V8.93822C0 11.0959 0.594378 12.7464 1.79242 13.8898C2.99047 15.0424 4.62501 15.6141 6.69604 15.6141C8.76708 15.6141 10.4202 15.0424 11.5997 13.899C12.7884 12.7557 13.3735 11.1051 13.3735 8.93822V6.63302L15.5096 10.1738V20.5012H19.0387V13.5302V8.14523C19.0387 6.82665 19.4009 5.79392 20.116 5.04703C20.8311 4.30014 21.7784 3.92209 22.9579 3.92209C24.1373 3.92209 25.0846 4.30014 25.7997 5.04703C26.5148 5.79392 26.877 6.83587 26.877 8.15445C26.877 9.47303 26.5148 10.4965 25.7997 11.2342C25.0753 11.9719 24.128 12.3499 22.9579 12.3499C22.122 12.3499 21.4069 12.1563 20.8032 11.7875V14.9871C21.6577 15.4205 22.6607 15.6326 23.803 15.6326C24.676 15.6326 25.5118 15.4666 26.3105 15.1438C27.1092 14.8211 27.8243 14.3509 28.4559 13.7423C29.0874 13.1337 29.5982 12.3407 29.9697 11.3817C30.3504 10.4228 30.5362 9.34394 30.5362 8.16367C30.5362 6.98341 30.3504 5.90457 29.9697 4.92716L29.979 4.8995Z" fill="#24291A"></path>
</g>
<defs>
<clipPath id="clip0_5088_864">
<rect width="30.5455" height="20" fill="white" transform="translate(0 0.5)"></rect>
</clipPath>
</defs>
</svg></svg></g></g></svg></g><g id="dark-icon"><svg xmlns="http://www.w3.org/2000/svg" version="1.1" xmlns:xlink="http://www.w3.org/1999/xlink" width="1000" height="1000"><g><g transform="matrix(32.25806451612903,0,0,32.25806451612903,0,161.29032258064518)"><svg xmlns="http://www.w3.org/2000/svg" version="1.1" xmlns:xlink="http://www.w3.org/1999/xlink" width="31" height="21"><svg width="31" height="21" viewBox="0 0 31 21" fill="none" xmlns="http://www.w3.org/2000/svg">
<g clip-path="url(#clip0_1376_171)">
<path d="M29.979 4.90002C29.366 3.31403 28.1401 2.04156 26.5984 1.30389C25.7533 0.898173 24.7967 0.63999 23.8123 0.547782C21.2212 0.289598 18.435 1.12869 16.9212 3.22182C16.4754 3.83962 16.1411 4.52196 15.9182 5.24119L13.3828 1.01804H9.99298V8.93874C9.99298 10.0637 9.6958 10.9028 9.10142 11.4745C8.50704 12.0462 7.70834 12.332 6.70533 12.332C5.75804 12.332 4.99649 12.0462 4.4114 11.4745C3.82631 10.9028 3.53841 10.0637 3.53841 8.93874V1.01804H0V8.93874C0 11.0964 0.594378 12.747 1.79242 13.8903C2.99047 15.0429 4.62501 15.6146 6.69604 15.6146C8.76708 15.6146 10.4202 15.0429 11.5997 13.8996C12.7884 12.7562 13.3735 11.1056 13.3735 8.93874V6.63353L15.5096 10.1743V20.5017H19.0387V13.5307V8.14575C19.0387 6.82717 19.4009 5.79444 20.116 5.04755C20.8311 4.30066 21.7784 3.92261 22.9579 3.92261C24.1373 3.92261 25.0846 4.30066 25.7997 5.04755C26.5148 5.79444 26.877 6.83639 26.877 8.15497C26.877 9.47355 26.5148 10.4971 25.7997 11.2347C25.0753 11.9724 24.128 12.3505 22.9579 12.3505C22.122 12.3505 21.4069 12.1568 20.8032 11.788V14.9876C21.6577 15.421 22.6607 15.6331 23.803 15.6331C24.676 15.6331 25.5118 15.4671 26.3105 15.1444C27.1092 14.8216 27.8243 14.3514 28.4559 13.7428C29.0874 13.1342 29.5982 12.3412 29.9697 11.3823C30.3504 10.4233 30.5362 9.34446 30.5362 8.16419C30.5362 6.98393 30.3504 5.90509 29.9697 4.92768L29.979 4.90002Z" fill="white"></path>
</g>
<defs>
<clipPath id="clip0_1376_171">
<rect width="30.5455" height="20" fill="white" transform="translate(0 0.5)"></rect>
</clipPath>
</defs>
</svg></svg></g></g></svg></g></svg>